<?xml version="1.0" encoding="utf-8"?>
<!-- Generator: Adobe Illustrator 16.0.0, SVG Export Plug-In . SVG Version: 6.00 Build 0)  -->
<!DOCTYPE svg PUBLIC "-//W3C//DTD SVG 1.1//EN" "http://www.w3.org/Graphics/SVG/1.1/DTD/svg11.dtd">
<svg version="1.1" id="Layer_1" xmlns="http://www.w3.org/2000/svg" xmlns:xlink="http://www.w3.org/1999/xlink" x="0px" y="0px"
	 width="260.5px" height="260.5px" viewBox="0 0 260.5 260.5" enable-background="new 0 0 260.5 260.5" xml:space="preserve">
<g>
	<g>
		<g>
			<circle fill="#FCC000" cx="129.667" cy="130.083" r="130.083"/>
		</g>
	</g>
	<g id="Layer_1_1_">
		<g>
			<g>
				<path fill="#323330" d="M89.081,79.611h22.635v63.74c0,28.618-13.789,38.765-35.643,38.765c-5.463,0-12.228-0.78-16.65-2.342
					l2.602-18.472c3.122,1.041,7.285,1.821,11.707,1.821c9.626,0,15.61-4.423,15.61-19.772L89.081,79.611L89.081,79.611z"/>
				<path fill="#323330" d="M131.748,157.14c5.984,3.123,15.61,6.245,25.236,6.245c10.406,0,15.87-4.424,15.87-11.188
					c0-6.244-4.683-9.887-16.91-14.049c-16.651-5.984-27.839-15.35-27.839-30.18c0-16.911,14.569-29.919,38.245-29.919
					c11.447,0,19.772,2.342,25.756,5.203l-5.203,18.212c-3.902-1.821-11.187-4.684-20.813-4.684c-9.886,0-14.569,4.684-14.569,9.627
					c0,6.504,5.464,9.365,18.732,14.309c17.691,6.504,26.017,15.871,26.017,30.18c0,16.91-12.748,31.22-40.586,31.22
					c-11.447,0-22.895-3.122-28.618-6.244L131.748,157.14z"/>
			</g>
		</g>
	</g>
</g>
</svg>
